<svg width="62" height="55" viewBox="0 0 62 55" fill="none" xmlns="http://www.w3.org/2000/svg">
<path d="M9.17945 43L11.2075 34.78H13.8595L15.8995 43H14.5555L14.1115 41.236H10.9555L10.5115 43H9.17945ZM12.2395 35.896L11.2195 40.06H13.8475L12.8395 35.896H12.2395ZM21.7525 34.504V43H20.4565V42.688C19.8725 42.984 19.3365 43.132 18.8485 43.132C18.0645 43.132 17.4885 42.896 17.1205 42.424C16.7605 41.952 16.5805 41.16 16.5805 40.048C16.5805 38.936 16.7805 38.128 17.1805 37.624C17.5885 37.12 18.2205 36.868 19.0765 36.868C19.3645 36.868 19.8205 36.92 20.4445 37.024V34.504H21.7525ZM20.2405 41.752L20.4445 41.668V38.116C19.9645 38.036 19.5205 37.996 19.1125 37.996C18.3045 37.996 17.9005 38.668 17.9005 40.012C17.9005 40.748 17.9925 41.26 18.1765 41.548C18.3685 41.828 18.6685 41.968 19.0765 41.968C19.4845 41.968 19.8725 41.896 20.2405 41.752ZM23.3369 43V37H24.6449V43H23.3369ZM23.3369 35.98V34.6H24.6449V35.98H23.3369ZM28.4755 36.868C28.8995 36.868 29.3995 36.924 29.9755 37.036L30.2755 37.096L30.2275 38.128C29.5955 38.064 29.1275 38.032 28.8235 38.032C28.2155 38.032 27.8075 38.168 27.5995 38.44C27.3915 38.712 27.2875 39.224 27.2875 39.976C27.2875 40.728 27.3875 41.248 27.5875 41.536C27.7875 41.824 28.2035 41.968 28.8355 41.968L30.2395 41.872L30.2755 42.916C29.4675 43.06 28.8595 43.132 28.4515 43.132C27.5395 43.132 26.8955 42.888 26.5195 42.4C26.1515 41.904 25.9675 41.096 25.9675 39.976C25.9675 38.856 26.1635 38.06 26.5555 37.588C26.9475 37.108 27.5875 36.868 28.4755 36.868ZM31.54 43V37H32.848V43H31.54ZM31.54 35.98V34.6H32.848V35.98H31.54ZM34.7586 37.648C35.1746 37.128 35.8626 36.868 36.8226 36.868C37.7826 36.868 38.4666 37.128 38.8746 37.648C39.2906 38.168 39.4986 38.948 39.4986 39.988C39.4986 41.028 39.2986 41.812 38.8986 42.34C38.4986 42.868 37.8066 43.132 36.8226 43.132C35.8386 43.132 35.1466 42.868 34.7466 42.34C34.3466 41.812 34.1466 41.028 34.1466 39.988C34.1466 38.948 34.3506 38.168 34.7586 37.648ZM35.7426 41.548C35.9266 41.868 36.2866 42.028 36.8226 42.028C37.3586 42.028 37.7186 41.868 37.9026 41.548C38.0866 41.228 38.1786 40.704 38.1786 39.976C38.1786 39.248 38.0786 38.732 37.8786 38.428C37.6866 38.124 37.3346 37.972 36.8226 37.972C36.3106 37.972 35.9546 38.124 35.7546 38.428C35.5626 38.732 35.4666 39.248 35.4666 39.976C35.4666 40.704 35.5586 41.228 35.7426 41.548ZM45.2379 38.848V41.584C45.2459 41.76 45.2899 41.892 45.3699 41.98C45.4579 42.06 45.5899 42.112 45.7659 42.136L45.7299 43.132C45.0419 43.132 44.5099 42.984 44.1339 42.688C43.4939 42.984 42.8499 43.132 42.2019 43.132C41.0099 43.132 40.4139 42.496 40.4139 41.224C40.4139 40.616 40.5739 40.176 40.8939 39.904C41.2219 39.632 41.7219 39.468 42.3939 39.412L43.9419 39.28V38.848C43.9419 38.528 43.8699 38.304 43.7259 38.176C43.5899 38.048 43.3859 37.984 43.1139 37.984C42.6019 37.984 41.9619 38.016 41.1939 38.08L40.8099 38.104L40.7619 37.18C41.6339 36.972 42.4339 36.868 43.1619 36.868C43.8979 36.868 44.4259 37.028 44.7459 37.348C45.0739 37.66 45.2379 38.16 45.2379 38.848ZM42.5499 40.336C41.9979 40.384 41.7219 40.684 41.7219 41.236C41.7219 41.788 41.9659 42.064 42.4539 42.064C42.8539 42.064 43.2779 42 43.7259 41.872L43.9419 41.8V40.204L42.5499 40.336ZM46.8799 43V37H48.1759V37.72C48.8559 37.28 49.5359 36.996 50.2159 36.868V38.176C49.5279 38.312 48.9399 38.488 48.4519 38.704L48.1879 38.812V43H46.8799ZM3.4735 47.868C3.8975 47.868 4.3975 47.924 4.9735 48.036L5.2735 48.096L5.2255 49.128C4.5935 49.064 4.1255 49.032 3.8215 49.032C3.2135 49.032 2.8055 49.168 2.5975 49.44C2.3895 49.712 2.2855 50.224 2.2855 50.976C2.2855 51.728 2.3855 52.248 2.5855 52.536C2.7855 52.824 3.2015 52.968 3.8335 52.968L5.2375 52.872L5.2735 53.916C4.4655 54.06 3.8575 54.132 3.4495 54.132C2.5375 54.132 1.8935 53.888 1.5175 53.4C1.1495 52.904 0.9655 52.096 0.9655 50.976C0.9655 49.856 1.1615 49.06 1.5535 48.588C1.9455 48.108 2.5855 47.868 3.4735 47.868ZM6.8035 48.648C7.2195 48.128 7.9075 47.868 8.8675 47.868C9.8275 47.868 10.5115 48.128 10.9195 48.648C11.3355 49.168 11.5435 49.948 11.5435 50.988C11.5435 52.028 11.3435 52.812 10.9435 53.34C10.5435 53.868 9.8515 54.132 8.8675 54.132C7.8835 54.132 7.1915 53.868 6.7915 53.34C6.3915 52.812 6.1915 52.028 6.1915 50.988C6.1915 49.948 6.3955 49.168 6.8035 48.648ZM7.7875 52.548C7.9715 52.868 8.3315 53.028 8.8675 53.028C9.4035 53.028 9.7635 52.868 9.9475 52.548C10.1315 52.228 10.2235 51.704 10.2235 50.976C10.2235 50.248 10.1235 49.732 9.9235 49.428C9.7315 49.124 9.3795 48.972 8.8675 48.972C8.3555 48.972 7.9995 49.124 7.7995 49.428C7.6075 49.732 7.5115 50.248 7.5115 50.976C7.5115 51.704 7.6035 52.228 7.7875 52.548ZM12.9148 54V45.504H14.2228V54H12.9148ZM20.3179 49.848V52.584C20.3259 52.76 20.3699 52.892 20.4499 52.98C20.5379 53.06 20.6699 53.112 20.8459 53.136L20.8099 54.132C20.1219 54.132 19.5899 53.984 19.2139 53.688C18.5739 53.984 17.9299 54.132 17.2819 54.132C16.0899 54.132 15.4939 53.496 15.4939 52.224C15.4939 51.616 15.6539 51.176 15.9739 50.904C16.3019 50.632 16.8019 50.468 17.4739 50.412L19.0219 50.28V49.848C19.0219 49.528 18.9499 49.304 18.8059 49.176C18.6699 49.048 18.4659 48.984 18.1939 48.984C17.6819 48.984 17.0419 49.016 16.2739 49.08L15.8899 49.104L15.8419 48.18C16.7139 47.972 17.5139 47.868 18.2419 47.868C18.9779 47.868 19.5059 48.028 19.8259 48.348C20.1539 48.66 20.3179 49.16 20.3179 49.848ZM17.6299 51.336C17.0779 51.384 16.8019 51.684 16.8019 52.236C16.8019 52.788 17.0459 53.064 17.5339 53.064C17.9339 53.064 18.3579 53 18.8059 52.872L19.0219 52.8V51.204L17.6299 51.336ZM24.756 47.868C25.58 47.868 26.172 48.1 26.532 48.564C26.9 49.02 27.084 49.832 27.084 51C27.084 52.168 26.868 52.984 26.436 53.448C26.004 53.904 25.244 54.132 24.156 54.132C23.78 54.132 23.184 54.096 22.368 54.024L21.96 53.988V45.504H23.256V48.228C23.808 47.988 24.308 47.868 24.756 47.868ZM24.156 52.968C24.796 52.968 25.22 52.82 25.428 52.524C25.644 52.22 25.752 51.708 25.752 50.988C25.752 50.268 25.66 49.764 25.476 49.476C25.3 49.18 25.008 49.032 24.6 49.032C24.216 49.032 23.832 49.092 23.448 49.212L23.256 49.272V52.92C23.696 52.952 23.996 52.968 24.156 52.968ZM28.7176 48.648C29.1336 48.128 29.8216 47.868 30.7816 47.868C31.7416 47.868 32.4256 48.128 32.8336 48.648C33.2496 49.168 33.4576 49.948 33.4576 50.988C33.4576 52.028 33.2576 52.812 32.8576 53.34C32.4576 53.868 31.7656 54.132 30.7816 54.132C29.7976 54.132 29.1056 53.868 28.7056 53.34C28.3056 52.812 28.1056 52.028 28.1056 50.988C28.1056 49.948 28.3096 49.168 28.7176 48.648ZM29.7016 52.548C29.8856 52.868 30.2456 53.028 30.7816 53.028C31.3176 53.028 31.6776 52.868 31.8616 52.548C32.0456 52.228 32.1376 51.704 32.1376 50.976C32.1376 50.248 32.0376 49.732 31.8376 49.428C31.6456 49.124 31.2936 48.972 30.7816 48.972C30.2696 48.972 29.9136 49.124 29.7136 49.428C29.5216 49.732 29.4256 50.248 29.4256 50.976C29.4256 51.704 29.5176 52.228 29.7016 52.548ZM34.7568 54V48H36.0528V48.72C36.7328 48.28 37.4128 47.996 38.0928 47.868V49.176C37.4048 49.312 36.8168 49.488 36.3288 49.704L36.0648 49.812V54H34.7568ZM43.5328 49.848V52.584C43.5408 52.76 43.5848 52.892 43.6648 52.98C43.7528 53.06 43.8848 53.112 44.0608 53.136L44.0248 54.132C43.3368 54.132 42.8048 53.984 42.4288 53.688C41.7888 53.984 41.1448 54.132 40.4968 54.132C39.3048 54.132 38.7088 53.496 38.7088 52.224C38.7088 51.616 38.8688 51.176 39.1888 50.904C39.5168 50.632 40.0168 50.468 40.6888 50.412L42.2368 50.28V49.848C42.2368 49.528 42.1648 49.304 42.0208 49.176C41.8848 49.048 41.6808 48.984 41.4088 48.984C40.8968 48.984 40.2568 49.016 39.4888 49.08L39.1048 49.104L39.0568 48.18C39.9288 47.972 40.7288 47.868 41.4568 47.868C42.1928 47.868 42.7208 48.028 43.0408 48.348C43.3688 48.66 43.5328 49.16 43.5328 49.848ZM40.8448 51.336C40.2928 51.384 40.0168 51.684 40.0168 52.236C40.0168 52.788 40.2608 53.064 40.7488 53.064C41.1488 53.064 41.5728 53 42.0208 52.872L42.2368 52.8V51.204L40.8448 51.336ZM50.0708 45.504V54H48.7748V53.688C48.1908 53.984 47.6548 54.132 47.1668 54.132C46.3828 54.132 45.8068 53.896 45.4388 53.424C45.0788 52.952 44.8988 52.16 44.8988 51.048C44.8988 49.936 45.0988 49.128 45.4988 48.624C45.9068 48.12 46.5388 47.868 47.3948 47.868C47.6828 47.868 48.1388 47.92 48.7628 48.024V45.504H50.0708ZM48.5588 52.752L48.7628 52.668V49.116C48.2828 49.036 47.8388 48.996 47.4308 48.996C46.6228 48.996 46.2188 49.668 46.2188 51.012C46.2188 51.748 46.3108 52.26 46.4948 52.548C46.6868 52.828 46.9868 52.968 47.3948 52.968C47.8028 52.968 48.1908 52.896 48.5588 52.752ZM51.9793 48.648C52.3953 48.128 53.0833 47.868 54.0433 47.868C55.0033 47.868 55.6873 48.128 56.0953 48.648C56.5113 49.168 56.7193 49.948 56.7193 50.988C56.7193 52.028 56.5193 52.812 56.1193 53.34C55.7193 53.868 55.0273 54.132 54.0433 54.132C53.0593 54.132 52.3673 53.868 51.9673 53.34C51.5673 52.812 51.3673 52.028 51.3673 50.988C51.3673 49.948 51.5713 49.168 51.9793 48.648ZM52.9633 52.548C53.1473 52.868 53.5073 53.028 54.0433 53.028C54.5793 53.028 54.9393 52.868 55.1233 52.548C55.3073 52.228 55.3993 51.704 55.3993 50.976C55.3993 50.248 55.2993 49.732 55.0993 49.428C54.9073 49.124 54.5553 48.972 54.0433 48.972C53.5313 48.972 53.1753 49.124 52.9753 49.428C52.7833 49.732 52.6873 50.248 52.6873 50.976C52.6873 51.704 52.7793 52.228 52.9633 52.548ZM58.0186 54V48H59.3146V48.72C59.9946 48.28 60.6746 47.996 61.3546 47.868V49.176C60.6666 49.312 60.0786 49.488 59.5906 49.704L59.3266 49.812V54H58.0186Z" fill="black"/>
<path d="M31 28C38.1797 28 44 22.1797 44 15C44 7.8203 38.1797 2 31 2C23.8203 2 18 7.8203 18 15C18 22.1797 23.8203 28 31 28Z" stroke="black" stroke-width="3" stroke-linecap="round" stroke-linejoin="round"/>
<path d="M31 9.8V20.2" stroke="black" stroke-width="3" stroke-linecap="round" stroke-linejoin="round"/>
<path d="M25.8 15H36.2" stroke="black" stroke-width="3" stroke-linecap="round" stroke-linejoin="round"/>
</svg>
