<svg width="315" height="140" viewBox="0 0 315 140" fill="none" xmlns="http://www.w3.org/2000/svg">
<path d="M110.919 114.802C109.647 115.078 108.501 115.216 107.481 115.216C106.461 115.216 105.645 115.09 105.033 114.838C104.421 114.586 103.941 114.184 103.593 113.632C103.245 113.08 103.005 112.432 102.873 111.688C102.741 110.944 102.675 110.008 102.675 108.88C102.675 106.516 103.005 104.872 103.665 103.948C104.337 103.012 105.567 102.544 107.355 102.544C108.387 102.544 109.581 102.706 110.937 103.03L110.865 105.01C109.677 104.83 108.687 104.74 107.895 104.74C107.115 104.74 106.557 104.848 106.221 105.064C105.885 105.268 105.633 105.664 105.465 106.252C105.309 106.84 105.231 107.842 105.231 109.258C105.231 110.674 105.393 111.658 105.717 112.21C106.053 112.75 106.713 113.02 107.697 113.02C108.693 113.02 109.749 112.936 110.865 112.768L110.919 114.802ZM113.064 107.026C113.7 106.198 114.762 105.784 116.25 105.784C117.738 105.784 118.8 106.198 119.436 107.026C120.072 107.842 120.39 108.994 120.39 110.482C120.39 113.638 119.01 115.216 116.25 115.216C113.49 115.216 112.11 113.638 112.11 110.482C112.11 108.994 112.428 107.842 113.064 107.026ZM114.918 112.516C115.17 112.948 115.614 113.164 116.25 113.164C116.886 113.164 117.324 112.948 117.564 112.516C117.816 112.084 117.942 111.406 117.942 110.482C117.942 109.558 117.816 108.886 117.564 108.466C117.324 108.046 116.886 107.836 116.25 107.836C115.614 107.836 115.17 108.046 114.918 108.466C114.678 108.886 114.558 109.558 114.558 110.482C114.558 111.406 114.678 112.084 114.918 112.516ZM122.266 115V102.4H124.678V115H122.266ZM133.904 108.808V112.552C133.928 112.84 133.976 113.044 134.048 113.164C134.12 113.272 134.27 113.35 134.498 113.398L134.426 115.216C133.814 115.216 133.322 115.174 132.95 115.09C132.59 115.006 132.224 114.838 131.852 114.586C130.988 115.006 130.106 115.216 129.206 115.216C127.346 115.216 126.416 114.232 126.416 112.264C126.416 111.304 126.674 110.626 127.19 110.23C127.706 109.822 128.498 109.582 129.566 109.51L131.492 109.366V108.808C131.492 108.436 131.408 108.184 131.24 108.052C131.072 107.908 130.802 107.836 130.43 107.836L127.046 107.98L126.974 106.306C128.258 105.958 129.476 105.784 130.628 105.784C131.792 105.784 132.626 106.024 133.13 106.504C133.646 106.984 133.904 107.752 133.904 108.808ZM129.854 111.184C129.182 111.244 128.846 111.604 128.846 112.264C128.846 112.924 129.14 113.254 129.728 113.254C130.184 113.254 130.682 113.182 131.222 113.038L131.492 112.966V111.04L129.854 111.184ZM140.559 105.784C141.819 105.784 142.737 106.132 143.313 106.828C143.901 107.512 144.195 108.742 144.195 110.518C144.195 112.294 143.859 113.524 143.187 114.208C142.515 114.88 141.357 115.216 139.713 115.216C139.197 115.216 138.255 115.156 136.887 115.036L136.203 114.964V102.4H138.615V106.27C139.383 105.946 140.031 105.784 140.559 105.784ZM139.713 113.056C140.517 113.056 141.057 112.864 141.333 112.48C141.609 112.084 141.747 111.382 141.747 110.374C141.747 108.754 141.243 107.944 140.235 107.944C139.755 107.944 139.299 108.004 138.867 108.124L138.615 108.178V112.984C139.167 113.032 139.533 113.056 139.713 113.056ZM146.48 107.026C147.116 106.198 148.178 105.784 149.666 105.784C151.154 105.784 152.216 106.198 152.852 107.026C153.488 107.842 153.806 108.994 153.806 110.482C153.806 113.638 152.426 115.216 149.666 115.216C146.906 115.216 145.526 113.638 145.526 110.482C145.526 108.994 145.844 107.842 146.48 107.026ZM148.334 112.516C148.586 112.948 149.03 113.164 149.666 113.164C150.302 113.164 150.74 112.948 150.98 112.516C151.232 112.084 151.358 111.406 151.358 110.482C151.358 109.558 151.232 108.886 150.98 108.466C150.74 108.046 150.302 107.836 149.666 107.836C149.03 107.836 148.586 108.046 148.334 108.466C148.094 108.886 147.974 109.558 147.974 110.482C147.974 111.406 148.094 112.084 148.334 112.516ZM155.574 115V106H157.968V106.954C158.976 106.354 159.936 105.964 160.848 105.784V108.214C159.876 108.418 159.042 108.628 158.346 108.844L157.986 108.97V115H155.574ZM169.165 108.808V112.552C169.189 112.84 169.237 113.044 169.309 113.164C169.381 113.272 169.531 113.35 169.759 113.398L169.687 115.216C169.075 115.216 168.583 115.174 168.211 115.09C167.851 115.006 167.485 114.838 167.113 114.586C166.249 115.006 165.367 115.216 164.467 115.216C162.607 115.216 161.677 114.232 161.677 112.264C161.677 111.304 161.935 110.626 162.451 110.23C162.967 109.822 163.759 109.582 164.827 109.51L166.753 109.366V108.808C166.753 108.436 166.669 108.184 166.501 108.052C166.333 107.908 166.063 107.836 165.691 107.836L162.307 107.98L162.235 106.306C163.519 105.958 164.737 105.784 165.889 105.784C167.053 105.784 167.887 106.024 168.391 106.504C168.907 106.984 169.165 107.752 169.165 108.808ZM165.115 111.184C164.443 111.244 164.107 111.604 164.107 112.264C164.107 112.924 164.401 113.254 164.989 113.254C165.445 113.254 165.943 113.182 166.483 113.038L166.753 112.966V111.04L165.115 111.184ZM179.115 102.4V115H176.721V114.622C175.881 115.018 175.155 115.216 174.543 115.216C173.235 115.216 172.323 114.838 171.807 114.082C171.291 113.326 171.033 112.132 171.033 110.5C171.033 108.856 171.339 107.662 171.951 106.918C172.575 106.162 173.511 105.784 174.759 105.784C175.143 105.784 175.677 105.844 176.361 105.964L176.703 106.036V102.4H179.115ZM176.451 112.84L176.703 112.786V108.052C176.043 107.932 175.455 107.872 174.939 107.872C173.967 107.872 173.481 108.736 173.481 110.464C173.481 111.4 173.589 112.066 173.805 112.462C174.021 112.858 174.375 113.056 174.867 113.056C175.371 113.056 175.899 112.984 176.451 112.84ZM181.83 107.026C182.466 106.198 183.528 105.784 185.016 105.784C186.504 105.784 187.566 106.198 188.202 107.026C188.838 107.842 189.156 108.994 189.156 110.482C189.156 113.638 187.776 115.216 185.016 115.216C182.256 115.216 180.876 113.638 180.876 110.482C180.876 108.994 181.194 107.842 181.83 107.026ZM183.684 112.516C183.936 112.948 184.38 113.164 185.016 113.164C185.652 113.164 186.09 112.948 186.33 112.516C186.582 112.084 186.708 111.406 186.708 110.482C186.708 109.558 186.582 108.886 186.33 108.466C186.09 108.046 185.652 107.836 185.016 107.836C184.38 107.836 183.936 108.046 183.684 108.466C183.444 108.886 183.324 109.558 183.324 110.482C183.324 111.406 183.444 112.084 183.684 112.516ZM190.924 115V106H193.318V106.954C194.326 106.354 195.286 105.964 196.198 105.784V108.214C195.226 108.418 194.392 108.628 193.696 108.844L193.336 108.97V115H190.924ZM199.601 111.526C199.613 112.078 199.757 112.48 200.033 112.732C200.321 112.972 200.729 113.092 201.257 113.092C202.373 113.092 203.369 113.056 204.245 112.984L204.749 112.93L204.785 114.712C203.405 115.048 202.157 115.216 201.041 115.216C199.685 115.216 198.701 114.856 198.089 114.136C197.477 113.416 197.171 112.246 197.171 110.626C197.171 107.398 198.497 105.784 201.149 105.784C203.765 105.784 205.073 107.14 205.073 109.852L204.893 111.526H199.601ZM202.697 109.69C202.697 108.97 202.583 108.472 202.355 108.196C202.127 107.908 201.725 107.764 201.149 107.764C200.585 107.764 200.183 107.914 199.943 108.214C199.715 108.502 199.595 108.994 199.583 109.69H202.697ZM213.259 108.25C211.771 108.058 210.727 107.962 210.127 107.962C209.539 107.962 209.155 108.016 208.975 108.124C208.807 108.232 208.723 108.406 208.723 108.646C208.723 108.874 208.837 109.036 209.065 109.132C209.305 109.216 209.905 109.348 210.865 109.528C211.837 109.696 212.527 109.978 212.935 110.374C213.343 110.77 213.547 111.412 213.547 112.3C213.547 114.244 212.341 115.216 209.929 115.216C209.137 115.216 208.177 115.108 207.049 114.892L206.473 114.784L206.545 112.768C208.033 112.96 209.065 113.056 209.641 113.056C210.229 113.056 210.625 113.002 210.829 112.894C211.045 112.774 211.153 112.6 211.153 112.372C211.153 112.144 211.039 111.976 210.811 111.868C210.595 111.76 210.019 111.628 209.083 111.472C208.159 111.316 207.469 111.052 207.013 110.68C206.557 110.308 206.329 109.648 206.329 108.7C206.329 107.74 206.653 107.02 207.301 106.54C207.949 106.048 208.783 105.802 209.803 105.802C210.511 105.802 211.477 105.916 212.701 106.144L213.295 106.252L213.259 108.25Z" fill="#00216C"/>
<path d="M44.1576 134L47.5776 121.544H50.6016L54.0216 134H52.6536L51.7536 130.796H46.4256L45.5256 134H44.1576ZM48.6216 122.732L46.7316 129.554H51.4476L49.5576 122.732H48.6216ZM62.5508 121.076V134H61.2188V133.388C60.2948 133.916 59.3828 134.18 58.4828 134.18C58.0028 134.18 57.5828 134.12 57.2228 134C56.8628 133.88 56.5268 133.664 56.2148 133.352C55.5668 132.704 55.2428 131.51 55.2428 129.77C55.2428 128.018 55.5308 126.758 56.1068 125.99C56.6948 125.21 57.6608 124.82 59.0048 124.82C59.7008 124.82 60.4388 124.898 61.2188 125.054V121.076H62.5508ZM57.2588 132.38C57.4508 132.608 57.6548 132.764 57.8708 132.848C58.0868 132.932 58.3628 132.974 58.6988 132.974C59.0468 132.974 59.4308 132.92 59.8508 132.812C60.2828 132.692 60.6188 132.578 60.8588 132.47L61.2188 132.308V126.206C60.4508 126.062 59.7368 125.99 59.0768 125.99C58.1648 125.99 57.5288 126.284 57.1688 126.872C56.8088 127.448 56.6288 128.348 56.6288 129.572C56.6288 130.964 56.8388 131.9 57.2588 132.38ZM65.1661 134V125H66.5161V134H65.1661ZM65.1661 122.966V121.4H66.5161V122.966H65.1661ZM72.4696 124.82C72.8656 124.82 73.5376 124.892 74.4856 125.036L74.9176 125.09L74.8636 126.188C73.9036 126.08 73.1956 126.026 72.7396 126.026C71.7196 126.026 71.0236 126.272 70.6516 126.764C70.2916 127.244 70.1116 128.144 70.1116 129.464C70.1116 130.772 70.2796 131.684 70.6156 132.2C70.9636 132.716 71.6776 132.974 72.7576 132.974L74.8816 132.812L74.9356 133.928C73.8196 134.096 72.9856 134.18 72.4336 134.18C71.0296 134.18 70.0576 133.82 69.5176 133.1C68.9896 132.38 68.7256 131.168 68.7256 129.464C68.7256 127.748 69.0136 126.548 69.5896 125.864C70.1656 125.168 71.1256 124.82 72.4696 124.82ZM76.9435 134V125H78.2935V134H76.9435ZM76.9435 122.966V121.4H78.2935V122.966H76.9435ZM80.485 129.482C80.485 127.838 80.779 126.65 81.367 125.918C81.955 125.186 82.945 124.82 84.337 124.82C85.741 124.82 86.731 125.186 87.307 125.918C87.895 126.65 88.189 127.838 88.189 129.482C88.189 131.126 87.913 132.32 87.361 133.064C86.809 133.808 85.801 134.18 84.337 134.18C82.873 134.18 81.865 133.808 81.313 133.064C80.761 132.32 80.485 131.126 80.485 129.482ZM81.871 129.464C81.871 130.772 82.027 131.69 82.339 132.218C82.663 132.746 83.329 133.01 84.337 133.01C85.357 133.01 86.023 132.752 86.335 132.236C86.647 131.708 86.803 130.784 86.803 129.464C86.803 128.144 86.629 127.238 86.281 126.746C85.933 126.242 85.285 125.99 84.337 125.99C83.401 125.99 82.753 126.242 82.393 126.746C82.045 127.238 81.871 128.144 81.871 129.464ZM91.7407 134H90.3907V125H91.7227V125.63C92.6947 125.09 93.6247 124.82 94.5127 124.82C95.7127 124.82 96.5167 125.144 96.9247 125.792C97.3447 126.44 97.5547 127.592 97.5547 129.248V134H96.2227V129.284C96.2227 128.036 96.0967 127.184 95.8447 126.728C95.6047 126.26 95.0827 126.026 94.2787 126.026C93.8947 126.026 93.4867 126.086 93.0547 126.206C92.6347 126.314 92.3107 126.422 92.0827 126.53L91.7407 126.692V134ZM106.179 132.884L106.701 132.83L106.737 133.892C105.369 134.084 104.199 134.18 103.227 134.18C101.931 134.18 101.013 133.808 100.473 133.064C99.9327 132.308 99.6627 131.138 99.6627 129.554C99.6627 126.398 100.917 124.82 103.425 124.82C104.637 124.82 105.543 125.162 106.143 125.846C106.743 126.518 107.043 127.58 107.043 129.032L106.971 130.058H101.031C101.031 131.054 101.211 131.792 101.571 132.272C101.931 132.752 102.555 132.992 103.443 132.992C104.343 132.992 105.255 132.956 106.179 132.884ZM105.693 128.978C105.693 127.874 105.513 127.094 105.153 126.638C104.805 126.182 104.229 125.954 103.425 125.954C102.633 125.954 102.033 126.194 101.625 126.674C101.229 127.154 101.025 127.922 101.013 128.978H105.693ZM118.718 125H120.068V134H118.718V133.37C117.818 133.91 116.93 134.18 116.054 134.18C114.83 134.18 114.014 133.862 113.606 133.226C113.21 132.59 113.012 131.414 113.012 129.698V125H114.362V129.68C114.362 130.988 114.476 131.864 114.704 132.308C114.932 132.752 115.448 132.974 116.252 132.974C116.648 132.974 117.05 132.92 117.458 132.812C117.866 132.692 118.178 132.578 118.394 132.47L118.718 132.308V125ZM124.014 134H122.664V125H123.996V125.63C124.896 125.09 125.772 124.82 126.624 124.82C127.74 124.82 128.52 125.126 128.964 125.738C129.36 125.498 129.87 125.288 130.494 125.108C131.13 124.916 131.688 124.82 132.168 124.82C133.368 124.82 134.172 125.144 134.58 125.792C135 126.428 135.21 127.58 135.21 129.248V134H133.86V129.284C133.86 128.036 133.74 127.184 133.5 126.728C133.26 126.26 132.75 126.026 131.97 126.026C131.574 126.026 131.166 126.086 130.746 126.206C130.326 126.314 130.002 126.422 129.774 126.53L129.432 126.692C129.588 127.088 129.666 127.964 129.666 129.32V134H128.316V129.356C128.316 128.06 128.196 127.184 127.956 126.728C127.728 126.26 127.218 126.026 126.426 126.026C126.042 126.026 125.646 126.086 125.238 126.206C124.842 126.314 124.536 126.422 124.32 126.53L124.014 126.692V134ZM143.016 134H141.666V125H142.998V125.63C143.97 125.09 144.9 124.82 145.788 124.82C146.988 124.82 147.792 125.144 148.2 125.792C148.62 126.44 148.83 127.592 148.83 129.248V134H147.498V129.284C147.498 128.036 147.372 127.184 147.12 126.728C146.88 126.26 146.358 126.026 145.554 126.026C145.17 126.026 144.762 126.086 144.33 126.206C143.91 126.314 143.586 126.422 143.358 126.53L143.016 126.692V134ZM150.938 129.482C150.938 127.838 151.232 126.65 151.82 125.918C152.408 125.186 153.398 124.82 154.79 124.82C156.194 124.82 157.184 125.186 157.76 125.918C158.348 126.65 158.642 127.838 158.642 129.482C158.642 131.126 158.366 132.32 157.814 133.064C157.262 133.808 156.254 134.18 154.79 134.18C153.326 134.18 152.318 133.808 151.766 133.064C151.214 132.32 150.938 131.126 150.938 129.482ZM152.324 129.464C152.324 130.772 152.48 131.69 152.792 132.218C153.116 132.746 153.782 133.01 154.79 133.01C155.81 133.01 156.476 132.752 156.788 132.236C157.1 131.708 157.256 130.784 157.256 129.464C157.256 128.144 157.082 127.238 156.734 126.746C156.386 126.242 155.738 125.99 154.79 125.99C153.854 125.99 153.206 126.242 152.846 126.746C152.498 127.238 152.324 128.144 152.324 129.464ZM159.84 125H161.28L163.386 132.83H164.052L166.23 125H167.616L165.078 134H162.378L159.84 125ZM168.797 129.482C168.797 127.838 169.091 126.65 169.679 125.918C170.267 125.186 171.257 124.82 172.649 124.82C174.053 124.82 175.043 125.186 175.619 125.918C176.207 126.65 176.501 127.838 176.501 129.482C176.501 131.126 176.225 132.32 175.673 133.064C175.121 133.808 174.113 134.18 172.649 134.18C171.185 134.18 170.177 133.808 169.625 133.064C169.073 132.32 168.797 131.126 168.797 129.482ZM170.183 129.464C170.183 130.772 170.339 131.69 170.651 132.218C170.975 132.746 171.641 133.01 172.649 133.01C173.669 133.01 174.335 132.752 174.647 132.236C174.959 131.708 175.115 130.784 175.115 129.464C175.115 128.144 174.941 127.238 174.593 126.746C174.245 126.242 173.597 125.99 172.649 125.99C171.713 125.99 171.065 126.242 170.705 126.746C170.357 127.238 170.183 128.144 170.183 129.464ZM186.024 124.82C186.42 124.82 187.092 124.892 188.04 125.036L188.472 125.09L188.418 126.188C187.458 126.08 186.75 126.026 186.294 126.026C185.274 126.026 184.578 126.272 184.206 126.764C183.846 127.244 183.666 128.144 183.666 129.464C183.666 130.772 183.834 131.684 184.17 132.2C184.518 132.716 185.232 132.974 186.312 132.974L188.436 132.812L188.49 133.928C187.374 134.096 186.54 134.18 185.988 134.18C184.584 134.18 183.612 133.82 183.072 133.1C182.544 132.38 182.28 131.168 182.28 129.464C182.28 127.748 182.568 126.548 183.144 125.864C183.72 125.168 184.68 124.82 186.024 124.82ZM189.997 129.482C189.997 127.838 190.291 126.65 190.879 125.918C191.467 125.186 192.457 124.82 193.849 124.82C195.253 124.82 196.243 125.186 196.819 125.918C197.407 126.65 197.701 127.838 197.701 129.482C197.701 131.126 197.425 132.32 196.873 133.064C196.321 133.808 195.313 134.18 193.849 134.18C192.385 134.18 191.377 133.808 190.825 133.064C190.273 132.32 189.997 131.126 189.997 129.482ZM191.383 129.464C191.383 130.772 191.539 131.69 191.851 132.218C192.175 132.746 192.841 133.01 193.849 133.01C194.869 133.01 195.535 132.752 195.847 132.236C196.159 131.708 196.315 130.784 196.315 129.464C196.315 128.144 196.141 127.238 195.793 126.746C195.445 126.242 194.797 125.99 193.849 125.99C192.913 125.99 192.265 126.242 191.905 126.746C191.557 127.238 191.383 128.144 191.383 129.464ZM200.01 134V121.076H201.36V134H200.01ZM210.422 127.718V132.326C210.458 132.77 210.806 133.034 211.466 133.118L211.412 134.18C210.464 134.18 209.75 133.94 209.27 133.46C208.19 133.94 207.11 134.18 206.03 134.18C205.202 134.18 204.572 133.946 204.14 133.478C203.708 133.01 203.492 132.338 203.492 131.462C203.492 130.586 203.714 129.944 204.158 129.536C204.602 129.116 205.298 128.858 206.246 128.762L209.072 128.492V127.718C209.072 127.106 208.94 126.668 208.676 126.404C208.412 126.14 208.052 126.008 207.596 126.008C206.636 126.008 205.64 126.068 204.608 126.188L204.05 126.242L203.996 125.216C205.316 124.952 206.486 124.82 207.506 124.82C208.526 124.82 209.264 125.054 209.72 125.522C210.188 125.99 210.422 126.722 210.422 127.718ZM204.878 131.39C204.878 132.494 205.334 133.046 206.246 133.046C207.062 133.046 207.866 132.908 208.658 132.632L209.072 132.488V129.518L206.408 129.77C205.868 129.818 205.478 129.974 205.238 130.238C204.998 130.502 204.878 130.886 204.878 131.39ZM217.064 124.82C218.276 124.82 219.122 125.168 219.602 125.864C220.094 126.548 220.34 127.754 220.34 129.482C220.34 131.21 220.034 132.428 219.422 133.136C218.822 133.832 217.712 134.18 216.092 134.18C215.588 134.18 214.754 134.132 213.59 134.036L213.086 133.982V121.076H214.418V125.45C215.33 125.03 216.212 124.82 217.064 124.82ZM216.074 132.974C217.25 132.974 218.024 132.71 218.396 132.182C218.78 131.642 218.972 130.736 218.972 129.464C218.972 128.192 218.822 127.304 218.522 126.8C218.222 126.284 217.688 126.026 216.92 126.026C216.224 126.026 215.51 126.158 214.778 126.422L214.418 126.548V132.884C215.198 132.944 215.75 132.974 216.074 132.974ZM222.165 129.482C222.165 127.838 222.459 126.65 223.047 125.918C223.635 125.186 224.625 124.82 226.017 124.82C227.421 124.82 228.411 125.186 228.987 125.918C229.575 126.65 229.869 127.838 229.869 129.482C229.869 131.126 229.593 132.32 229.041 133.064C228.489 133.808 227.481 134.18 226.017 134.18C224.553 134.18 223.545 133.808 222.993 133.064C222.441 132.32 222.165 131.126 222.165 129.482ZM223.551 129.464C223.551 130.772 223.707 131.69 224.019 132.218C224.343 132.746 225.009 133.01 226.017 133.01C227.037 133.01 227.703 132.752 228.015 132.236C228.327 131.708 228.483 130.784 228.483 129.464C228.483 128.144 228.309 127.238 227.961 126.746C227.613 126.242 226.965 125.99 226.017 125.99C225.081 125.99 224.433 126.242 224.073 126.746C223.725 127.238 223.551 128.144 223.551 129.464ZM232.07 134V125H233.402V126.224C234.446 125.504 235.544 125.03 236.696 124.802V126.17C236.192 126.266 235.664 126.416 235.112 126.62C234.572 126.824 234.158 127.004 233.87 127.16L233.42 127.394V134H232.07ZM244.647 127.718V132.326C244.683 132.77 245.031 133.034 245.691 133.118L245.637 134.18C244.689 134.18 243.975 133.94 243.495 133.46C242.415 133.94 241.335 134.18 240.255 134.18C239.427 134.18 238.797 133.946 238.365 133.478C237.933 133.01 237.717 132.338 237.717 131.462C237.717 130.586 237.939 129.944 238.383 129.536C238.827 129.116 239.523 128.858 240.471 128.762L243.297 128.492V127.718C243.297 127.106 243.165 126.668 242.901 126.404C242.637 126.14 242.277 126.008 241.821 126.008C240.861 126.008 239.865 126.068 238.833 126.188L238.275 126.242L238.221 125.216C239.541 124.952 240.711 124.82 241.731 124.82C242.751 124.82 243.489 125.054 243.945 125.522C244.413 125.99 244.647 126.722 244.647 127.718ZM239.103 131.39C239.103 132.494 239.559 133.046 240.471 133.046C241.287 133.046 242.091 132.908 242.883 132.632L243.297 132.488V129.518L240.633 129.77C240.093 129.818 239.703 129.974 239.463 130.238C239.223 130.502 239.103 130.886 239.103 131.39ZM254.223 121.076V134H252.891V133.388C251.967 133.916 251.055 134.18 250.155 134.18C249.675 134.18 249.255 134.12 248.895 134C248.535 133.88 248.199 133.664 247.887 133.352C247.239 132.704 246.915 131.51 246.915 129.77C246.915 128.018 247.203 126.758 247.779 125.99C248.367 125.21 249.333 124.82 250.677 124.82C251.373 124.82 252.111 124.898 252.891 125.054V121.076H254.223ZM248.931 132.38C249.123 132.608 249.327 132.764 249.543 132.848C249.759 132.932 250.035 132.974 250.371 132.974C250.719 132.974 251.103 132.92 251.523 132.812C251.955 132.692 252.291 132.578 252.531 132.47L252.891 132.308V126.206C252.123 126.062 251.409 125.99 250.749 125.99C249.837 125.99 249.201 126.284 248.841 126.872C248.481 127.448 248.301 128.348 248.301 129.572C248.301 130.964 248.511 131.9 248.931 132.38ZM256.442 129.482C256.442 127.838 256.736 126.65 257.324 125.918C257.912 125.186 258.902 124.82 260.294 124.82C261.698 124.82 262.688 125.186 263.264 125.918C263.852 126.65 264.146 127.838 264.146 129.482C264.146 131.126 263.87 132.32 263.318 133.064C262.766 133.808 261.758 134.18 260.294 134.18C258.83 134.18 257.822 133.808 257.27 133.064C256.718 132.32 256.442 131.126 256.442 129.482ZM257.828 129.464C257.828 130.772 257.984 131.69 258.296 132.218C258.62 132.746 259.286 133.01 260.294 133.01C261.314 133.01 261.98 132.752 262.292 132.236C262.604 131.708 262.76 130.784 262.76 129.464C262.76 128.144 262.586 127.238 262.238 126.746C261.89 126.242 261.242 125.99 260.294 125.99C259.358 125.99 258.71 126.242 258.35 126.746C258.002 127.238 257.828 128.144 257.828 129.464ZM266.348 134V125H267.68V126.224C268.724 125.504 269.822 125.03 270.974 124.802V126.17C270.47 126.266 269.942 126.416 269.39 126.62C268.85 126.824 268.436 127.004 268.148 127.16L267.698 127.394V134H266.348Z" fill="#00216C"/>
<path d="M186.667 82.75V73.9167C186.667 69.2312 184.805 64.7376 181.492 61.4245C178.179 58.1113 173.686 56.25 169 56.25H138.083C133.398 56.25 128.904 58.1113 125.591 61.4245C122.278 64.7376 120.417 69.2312 120.417 73.9167V82.75" stroke="#00BEF2" stroke-width="6" stroke-linecap="round" stroke-linejoin="round"/>
<path d="M153.542 38.5833C163.299 38.5833 171.208 30.6737 171.208 20.9167C171.208 11.1596 163.299 3.25 153.542 3.25C143.785 3.25 135.875 11.1596 135.875 20.9167C135.875 30.6737 143.785 38.5833 153.542 38.5833Z" stroke="#00BEF2" stroke-width="6" stroke-linecap="round" stroke-linejoin="round"/>
<path d="M204.333 25.3333V51.8333" stroke="#00BEF2" stroke-width="6" stroke-linecap="round" stroke-linejoin="round"/>
<path d="M217.583 38.5833H191.083" stroke="#00BEF2" stroke-width="6" stroke-linecap="round" stroke-linejoin="round"/>
</svg>
