<svg width="39" height="59" viewBox="0 0 39 59" fill="none" xmlns="http://www.w3.org/2000/svg">
<path d="M2.97534 36.78H6.09534C6.93534 36.78 7.56334 36.952 7.97934 37.296C8.39534 37.632 8.60334 38.172 8.60334 38.916C8.60334 39.404 8.52334 39.788 8.36334 40.068C8.21134 40.348 7.96734 40.58 7.63134 40.764C8.41534 41.068 8.80734 41.704 8.80734 42.672C8.80734 44.224 7.93534 45 6.19134 45H2.97534V36.78ZM6.09534 41.412H4.30734V43.848H6.11934C6.55934 43.848 6.88734 43.756 7.10334 43.572C7.32734 43.388 7.43934 43.072 7.43934 42.624C7.43934 42.176 7.31134 41.864 7.05534 41.688C6.79934 41.504 6.47934 41.412 6.09534 41.412ZM6.02334 37.932H4.30734V40.284H6.07134C6.85534 40.284 7.24734 39.88 7.24734 39.072C7.24734 38.312 6.83934 37.932 6.02334 37.932ZM14.607 40.848V43.584C14.615 43.76 14.659 43.892 14.739 43.98C14.827 44.06 14.959 44.112 15.135 44.136L15.099 45.132C14.411 45.132 13.879 44.984 13.503 44.688C12.863 44.984 12.219 45.132 11.571 45.132C10.379 45.132 9.783 44.496 9.783 43.224C9.783 42.616 9.943 42.176 10.263 41.904C10.591 41.632 11.091 41.468 11.763 41.412L13.311 41.28V40.848C13.311 40.528 13.239 40.304 13.095 40.176C12.959 40.048 12.755 39.984 12.483 39.984C11.971 39.984 11.331 40.016 10.563 40.08L10.179 40.104L10.131 39.18C11.003 38.972 11.803 38.868 12.531 38.868C13.267 38.868 13.795 39.028 14.115 39.348C14.443 39.66 14.607 40.16 14.607 40.848ZM11.919 42.336C11.367 42.384 11.091 42.684 11.091 43.236C11.091 43.788 11.335 44.064 11.823 44.064C12.223 44.064 12.647 44 13.095 43.872L13.311 43.8V42.204L11.919 42.336ZM16.249 45V39H17.557V45H16.249ZM16.249 37.98V36.6H17.557V37.98H16.249ZM18.5676 39H19.9596L21.1356 41.076L22.3236 39H23.7156L21.9276 41.952L23.7156 45H22.3236L21.1356 42.948L19.9596 45H18.5676L20.3076 41.988L18.5676 39ZM29.15 40.848V43.584C29.158 43.76 29.202 43.892 29.282 43.98C29.37 44.06 29.502 44.112 29.678 44.136L29.642 45.132C28.954 45.132 28.422 44.984 28.046 44.688C27.406 44.984 26.762 45.132 26.114 45.132C24.922 45.132 24.326 44.496 24.326 43.224C24.326 42.616 24.486 42.176 24.806 41.904C25.134 41.632 25.634 41.468 26.306 41.412L27.854 41.28V40.848C27.854 40.528 27.782 40.304 27.638 40.176C27.502 40.048 27.298 39.984 27.026 39.984C26.514 39.984 25.874 40.016 25.106 40.08L24.722 40.104L24.674 39.18C25.546 38.972 26.346 38.868 27.074 38.868C27.81 38.868 28.338 39.028 28.658 39.348C28.986 39.66 29.15 40.16 29.15 40.848ZM26.462 42.336C25.91 42.384 25.634 42.684 25.634 43.236C25.634 43.788 25.878 44.064 26.366 44.064C26.766 44.064 27.19 44 27.638 43.872L27.854 43.8V42.204L26.462 42.336ZM30.792 45V39H32.088V39.72C32.768 39.28 33.448 38.996 34.128 38.868V40.176C33.44 40.312 32.852 40.488 32.364 40.704L32.1 40.812V45H30.792ZM5.55427 51.848V54.584C5.56227 54.76 5.60627 54.892 5.68627 54.98C5.77427 55.06 5.90627 55.112 6.08227 55.136L6.04627 56.132C5.35827 56.132 4.82627 55.984 4.45027 55.688C3.81027 55.984 3.16627 56.132 2.51827 56.132C1.32627 56.132 0.730266 55.496 0.730266 54.224C0.730266 53.616 0.890266 53.176 1.21027 52.904C1.53827 52.632 2.03827 52.468 2.71027 52.412L4.25827 52.28V51.848C4.25827 51.528 4.18627 51.304 4.04227 51.176C3.90627 51.048 3.70227 50.984 3.43027 50.984C2.91827 50.984 2.27827 51.016 1.51027 51.08L1.12627 51.104L1.07827 50.18C1.95027 49.972 2.75027 49.868 3.47827 49.868C4.21427 49.868 4.74227 50.028 5.06227 50.348C5.39027 50.66 5.55427 51.16 5.55427 51.848ZM2.86627 53.336C2.31427 53.384 2.03827 53.684 2.03827 54.236C2.03827 54.788 2.28227 55.064 2.77027 55.064C3.17027 55.064 3.59427 55 4.04227 54.872L4.25827 54.8V53.204L2.86627 53.336ZM7.1963 56V50H8.4923V50.72C9.1723 50.28 9.8523 49.996 10.5323 49.868V51.176C9.8443 51.312 9.2563 51.488 8.7683 51.704L8.5043 51.812V56H7.1963ZM13.5496 56.132C12.7256 56.132 12.1256 55.9 11.7496 55.436C11.3816 54.972 11.1976 54.16 11.1976 53C11.1976 51.832 11.4136 51.02 11.8456 50.564C12.2856 50.1 13.0416 49.868 14.1136 49.868C14.5056 49.868 15.1056 49.904 15.9136 49.976L16.3096 50.012V58.58H15.0136V55.772C14.4776 56.012 13.9896 56.132 13.5496 56.132ZM14.1136 50.996C13.4816 50.996 13.0536 51.156 12.8296 51.476C12.6136 51.788 12.5056 52.3 12.5056 53.012C12.5056 53.724 12.6016 54.228 12.7936 54.524C12.9936 54.82 13.2976 54.968 13.7056 54.968C14.0816 54.968 14.4576 54.908 14.8336 54.788L15.0136 54.728V51.044C14.6296 51.012 14.3296 50.996 14.1136 50.996ZM21.5315 50H22.8275V56H21.5315V55.628C20.9475 55.964 20.4075 56.132 19.9115 56.132C19.0875 56.132 18.5355 55.912 18.2555 55.472C17.9755 55.024 17.8355 54.244 17.8355 53.132V50H19.1435V53.144C19.1435 53.864 19.2035 54.348 19.3235 54.596C19.4435 54.844 19.7235 54.968 20.1635 54.968C20.5955 54.968 20.9915 54.888 21.3515 54.728L21.5315 54.656V50ZM24.4111 56V50H25.7191V56H24.4111ZM24.4111 48.98V47.6H25.7191V48.98H24.4111ZM26.7417 50H28.1097L29.2617 54.884H29.6457L30.8457 50H32.1777L30.6177 56H28.2897L26.7417 50ZM33.4305 50.648C33.8465 50.128 34.5345 49.868 35.4945 49.868C36.4545 49.868 37.1385 50.128 37.5465 50.648C37.9625 51.168 38.1705 51.948 38.1705 52.988C38.1705 54.028 37.9705 54.812 37.5705 55.34C37.1705 55.868 36.4785 56.132 35.4945 56.132C34.5105 56.132 33.8185 55.868 33.4185 55.34C33.0185 54.812 32.8185 54.028 32.8185 52.988C32.8185 51.948 33.0225 51.168 33.4305 50.648ZM34.4145 54.548C34.5985 54.868 34.9585 55.028 35.4945 55.028C36.0305 55.028 36.3905 54.868 36.5745 54.548C36.7585 54.228 36.8505 53.704 36.8505 52.976C36.8505 52.248 36.7505 51.732 36.5505 51.428C36.3585 51.124 36.0065 50.972 35.4945 50.972C34.9825 50.972 34.6265 51.124 34.4265 51.428C34.2345 51.732 34.1385 52.248 34.1385 52.976C34.1385 53.704 34.2305 54.228 34.4145 54.548Z" fill="black"/>
<path d="M32 19.3333V25.1111C32 25.8773 31.6956 26.6121 31.1539 27.1538C30.6121 27.6956 29.8773 28 29.1111 28H8.88889C8.12271 28 7.38791 27.6956 6.84614 27.1538C6.30436 26.6121 6 25.8773 6 25.1111V19.3333" stroke="black" stroke-width="3" stroke-linecap="round" stroke-linejoin="round"/>
<path d="M11.7778 12.1111L19.0001 19.3333L26.2223 12.1111" stroke="black" stroke-width="3" stroke-linecap="round" stroke-linejoin="round"/>
<path d="M19 19.3333V2" stroke="black" stroke-width="3" stroke-linecap="round" stroke-linejoin="round"/>
</svg>
