<svg width="39" height="58" viewBox="0 0 39 58" fill="none" xmlns="http://www.w3.org/2000/svg">
<path d="M5.12573 44V35.78H10.3097V36.944H6.45773V39.272H9.58973V40.424H6.45773V42.824H10.3097V44H5.12573ZM16.4165 35.504V44H15.1205V43.688C14.5365 43.984 14.0005 44.132 13.5125 44.132C12.7285 44.132 12.1525 43.896 11.7845 43.424C11.4245 42.952 11.2445 42.16 11.2445 41.048C11.2445 39.936 11.4445 39.128 11.8445 38.624C12.2525 38.12 12.8845 37.868 13.7405 37.868C14.0285 37.868 14.4845 37.92 15.1085 38.024V35.504H16.4165ZM14.9045 42.752L15.1085 42.668V39.116C14.6285 39.036 14.1845 38.996 13.7765 38.996C12.9685 38.996 12.5645 39.668 12.5645 41.012C12.5645 41.748 12.6565 42.26 12.8405 42.548C13.0325 42.828 13.3325 42.968 13.7405 42.968C14.1485 42.968 14.5365 42.896 14.9045 42.752ZM18.001 44V38H19.309V44H18.001ZM18.001 36.98V35.6H19.309V36.98H18.001ZM24.1235 39.116H22.4675V41.756C22.4675 42.244 22.5035 42.568 22.5755 42.728C22.6475 42.888 22.8315 42.968 23.1275 42.968L24.1115 42.932L24.1715 43.976C23.6355 44.08 23.2275 44.132 22.9475 44.132C22.2675 44.132 21.7995 43.976 21.5435 43.664C21.2955 43.352 21.1715 42.764 21.1715 41.9V39.116H20.4035V38H21.1715V36.26H22.4675V38H24.1235V39.116ZM29.6363 39.848V42.584C29.6443 42.76 29.6883 42.892 29.7683 42.98C29.8563 43.06 29.9883 43.112 30.1643 43.136L30.1283 44.132C29.4403 44.132 28.9083 43.984 28.5323 43.688C27.8923 43.984 27.2483 44.132 26.6003 44.132C25.4083 44.132 24.8123 43.496 24.8123 42.224C24.8123 41.616 24.9723 41.176 25.2923 40.904C25.6203 40.632 26.1203 40.468 26.7923 40.412L28.3403 40.28V39.848C28.3403 39.528 28.2683 39.304 28.1243 39.176C27.9883 39.048 27.7843 38.984 27.5123 38.984C27.0003 38.984 26.3603 39.016 25.5923 39.08L25.2083 39.104L25.1603 38.18C26.0323 37.972 26.8323 37.868 27.5603 37.868C28.2963 37.868 28.8243 38.028 29.1443 38.348C29.4723 38.66 29.6363 39.16 29.6363 39.848ZM26.9483 41.336C26.3963 41.384 26.1203 41.684 26.1203 42.236C26.1203 42.788 26.3643 43.064 26.8523 43.064C27.2523 43.064 27.6763 43 28.1243 42.872L28.3403 42.8V41.204L26.9483 41.336ZM31.2783 44V38H32.5743V38.72C33.2543 38.28 33.9343 37.996 34.6143 37.868V39.176C33.9263 39.312 33.3383 39.488 32.8503 39.704L32.5863 39.812V44H31.2783ZM5.55427 50.848V53.584C5.56227 53.76 5.60627 53.892 5.68627 53.98C5.77427 54.06 5.90627 54.112 6.08227 54.136L6.04627 55.132C5.35827 55.132 4.82627 54.984 4.45027 54.688C3.81027 54.984 3.16627 55.132 2.51827 55.132C1.32627 55.132 0.730266 54.496 0.730266 53.224C0.730266 52.616 0.890266 52.176 1.21027 51.904C1.53827 51.632 2.03827 51.468 2.71027 51.412L4.25827 51.28V50.848C4.25827 50.528 4.18627 50.304 4.04227 50.176C3.90627 50.048 3.70227 49.984 3.43027 49.984C2.91827 49.984 2.27827 50.016 1.51027 50.08L1.12627 50.104L1.07827 49.18C1.95027 48.972 2.75027 48.868 3.47827 48.868C4.21427 48.868 4.74227 49.028 5.06227 49.348C5.39027 49.66 5.55427 50.16 5.55427 50.848ZM2.86627 52.336C2.31427 52.384 2.03827 52.684 2.03827 53.236C2.03827 53.788 2.28227 54.064 2.77027 54.064C3.17027 54.064 3.59427 54 4.04227 53.872L4.25827 53.8V52.204L2.86627 52.336ZM7.1963 55V49H8.4923V49.72C9.1723 49.28 9.8523 48.996 10.5323 48.868V50.176C9.8443 50.312 9.2563 50.488 8.7683 50.704L8.5043 50.812V55H7.1963ZM13.5496 55.132C12.7256 55.132 12.1256 54.9 11.7496 54.436C11.3816 53.972 11.1976 53.16 11.1976 52C11.1976 50.832 11.4136 50.02 11.8456 49.564C12.2856 49.1 13.0416 48.868 14.1136 48.868C14.5056 48.868 15.1056 48.904 15.9136 48.976L16.3096 49.012V57.58H15.0136V54.772C14.4776 55.012 13.9896 55.132 13.5496 55.132ZM14.1136 49.996C13.4816 49.996 13.0536 50.156 12.8296 50.476C12.6136 50.788 12.5056 51.3 12.5056 52.012C12.5056 52.724 12.6016 53.228 12.7936 53.524C12.9936 53.82 13.2976 53.968 13.7056 53.968C14.0816 53.968 14.4576 53.908 14.8336 53.788L15.0136 53.728V50.044C14.6296 50.012 14.3296 49.996 14.1136 49.996ZM21.5315 49H22.8275V55H21.5315V54.628C20.9475 54.964 20.4075 55.132 19.9115 55.132C19.0875 55.132 18.5355 54.912 18.2555 54.472C17.9755 54.024 17.8355 53.244 17.8355 52.132V49H19.1435V52.144C19.1435 52.864 19.2035 53.348 19.3235 53.596C19.4435 53.844 19.7235 53.968 20.1635 53.968C20.5955 53.968 20.9915 53.888 21.3515 53.728L21.5315 53.656V49ZM24.4111 55V49H25.7191V55H24.4111ZM24.4111 47.98V46.6H25.7191V47.98H24.4111ZM26.7417 49H28.1097L29.2617 53.884H29.6457L30.8457 49H32.1777L30.6177 55H28.2897L26.7417 49ZM33.4305 49.648C33.8465 49.128 34.5345 48.868 35.4945 48.868C36.4545 48.868 37.1385 49.128 37.5465 49.648C37.9625 50.168 38.1705 50.948 38.1705 51.988C38.1705 53.028 37.9705 53.812 37.5705 54.34C37.1705 54.868 36.4785 55.132 35.4945 55.132C34.5105 55.132 33.8185 54.868 33.4185 54.34C33.0185 53.812 32.8185 53.028 32.8185 51.988C32.8185 50.948 33.0225 50.168 33.4305 49.648ZM34.4145 53.548C34.5985 53.868 34.9585 54.028 35.4945 54.028C36.0305 54.028 36.3905 53.868 36.5745 53.548C36.7585 53.228 36.8505 52.704 36.8505 51.976C36.8505 51.248 36.7505 50.732 36.5505 50.428C36.3585 50.124 36.0065 49.972 35.4945 49.972C34.9825 49.972 34.6265 50.124 34.4265 50.428C34.2345 50.732 34.1385 51.248 34.1385 51.976C34.1385 52.704 34.2305 53.228 34.4145 53.548Z" fill="black"/>
<path d="M16.6295 4.74109H7.58432C6.89892 4.74109 6.24159 5.01336 5.75693 5.49802C5.27228 5.98267 5 6.64001 5 7.32541V25.4157C5 26.1011 5.27228 26.7584 5.75693 27.2431C6.24159 27.7277 6.89892 28 7.58432 28H25.6746C26.36 28 27.0173 27.7277 27.502 27.2431C27.9866 26.7584 28.2589 26.1011 28.2589 25.4157V16.3705" stroke="black" stroke-width="3" stroke-linecap="round" stroke-linejoin="round"/>
<path d="M26.3206 2.80285C26.8347 2.28879 27.5319 2 28.2589 2C28.9859 2 29.6831 2.28879 30.1971 2.80285C30.7112 3.3169 31 4.01411 31 4.74109C31 5.46807 30.7112 6.16528 30.1971 6.67933L17.9216 18.9549L12.7529 20.247L14.0451 15.0784L26.3206 2.80285Z" stroke="black" stroke-width="3" stroke-linecap="round" stroke-linejoin="round"/>
</svg>
