<svg width="47" height="60" viewBox="0 0 47 60" fill="none" xmlns="http://www.w3.org/2000/svg">
<path d="M1.0105 46V37.78H2.3425V46H1.0105ZM5.38516 46H4.07716V40H5.37316V40.372C5.94116 40.036 6.46116 39.868 6.93316 39.868C7.62916 39.868 8.13716 40.064 8.45716 40.456C9.18516 40.064 9.90916 39.868 10.6292 39.868C11.3492 39.868 11.8572 40.092 12.1532 40.54C12.4492 40.98 12.5972 41.728 12.5972 42.784V46H11.3012V42.82C11.3012 42.172 11.2332 41.712 11.0972 41.44C10.9692 41.168 10.6972 41.032 10.2812 41.032C9.92116 41.032 9.53316 41.112 9.11716 41.272L8.91316 41.356C8.97716 41.516 9.00916 42.028 9.00916 42.892V46H7.71316V42.916C7.71316 42.204 7.64916 41.712 7.52116 41.44C7.39316 41.168 7.11316 41.032 6.68116 41.032C6.28116 41.032 5.90916 41.112 5.56516 41.272L5.38516 41.344V46ZM14.1318 48.58V40H15.4278V40.372C15.9798 40.036 16.4958 39.868 16.9758 39.868C17.7678 39.868 18.3478 40.112 18.7158 40.6C19.0838 41.08 19.2678 41.892 19.2678 43.036C19.2678 44.172 19.0558 44.972 18.6318 45.436C18.2158 45.9 17.5318 46.132 16.5798 46.132C16.2518 46.132 15.8718 46.096 15.4398 46.024V48.58H14.1318ZM16.7478 41.032C16.3718 41.032 15.9958 41.116 15.6198 41.284L15.4398 41.368V44.908C15.7598 44.972 16.1118 45.004 16.4958 45.004C17.0398 45.004 17.4158 44.848 17.6238 44.536C17.8318 44.224 17.9358 43.692 17.9358 42.94C17.9358 41.668 17.5398 41.032 16.7478 41.032ZM20.5772 46V40H21.8732V40.72C22.5532 40.28 23.2332 39.996 23.9132 39.868V41.176C23.2252 41.312 22.6372 41.488 22.1492 41.704L21.8852 41.812V46H20.5772ZM24.9131 46V40H26.2211V46H24.9131ZM24.9131 38.98V37.6H26.2211V38.98H24.9131ZM29.1156 46H27.8076V40H29.1036V40.372C29.6716 40.036 30.1916 39.868 30.6636 39.868C31.3596 39.868 31.8676 40.064 32.1876 40.456C32.9156 40.064 33.6396 39.868 34.3596 39.868C35.0796 39.868 35.5876 40.092 35.8836 40.54C36.1796 40.98 36.3276 41.728 36.3276 42.784V46H35.0316V42.82C35.0316 42.172 34.9636 41.712 34.8276 41.44C34.6996 41.168 34.4276 41.032 34.0116 41.032C33.6516 41.032 33.2636 41.112 32.8476 41.272L32.6436 41.356C32.7076 41.516 32.7396 42.028 32.7396 42.892V46H31.4436V42.916C31.4436 42.204 31.3796 41.712 31.2516 41.44C31.1236 41.168 30.8436 41.032 30.4116 41.032C30.0116 41.032 29.6396 41.112 29.2956 41.272L29.1156 41.344V46ZM37.8623 46V40H39.1703V46H37.8623ZM37.8623 38.98V37.6H39.1703V38.98H37.8623ZM40.7568 46V40H42.0528V40.72C42.7328 40.28 43.4128 39.996 44.0928 39.868V41.176C43.4048 41.312 42.8168 41.488 42.3288 41.704L42.0648 41.812V46H40.7568ZM9.55427 52.848V55.584C9.56227 55.76 9.60627 55.892 9.68627 55.98C9.77427 56.06 9.90627 56.112 10.0823 56.136L10.0463 57.132C9.35827 57.132 8.82627 56.984 8.45027 56.688C7.81027 56.984 7.16627 57.132 6.51827 57.132C5.32627 57.132 4.73027 56.496 4.73027 55.224C4.73027 54.616 4.89027 54.176 5.21027 53.904C5.53827 53.632 6.03827 53.468 6.71027 53.412L8.25827 53.28V52.848C8.25827 52.528 8.18627 52.304 8.04227 52.176C7.90627 52.048 7.70227 51.984 7.43027 51.984C6.91827 51.984 6.27827 52.016 5.51027 52.08L5.12627 52.104L5.07827 51.18C5.95027 50.972 6.75027 50.868 7.47827 50.868C8.21427 50.868 8.74227 51.028 9.06227 51.348C9.39027 51.66 9.55427 52.16 9.55427 52.848ZM6.86627 54.336C6.31427 54.384 6.03827 54.684 6.03827 55.236C6.03827 55.788 6.28227 56.064 6.77027 56.064C7.17027 56.064 7.59427 56 8.04227 55.872L8.25827 55.8V54.204L6.86627 54.336ZM11.1963 57V51H12.4923V51.72C13.1723 51.28 13.8523 50.996 14.5323 50.868V52.176C13.8443 52.312 13.2563 52.488 12.7683 52.704L12.5043 52.812V57H11.1963ZM17.5496 57.132C16.7256 57.132 16.1256 56.9 15.7496 56.436C15.3816 55.972 15.1976 55.16 15.1976 54C15.1976 52.832 15.4136 52.02 15.8456 51.564C16.2856 51.1 17.0416 50.868 18.1136 50.868C18.5056 50.868 19.1056 50.904 19.9136 50.976L20.3096 51.012V59.58H19.0136V56.772C18.4776 57.012 17.9896 57.132 17.5496 57.132ZM18.1136 51.996C17.4816 51.996 17.0536 52.156 16.8296 52.476C16.6136 52.788 16.5056 53.3 16.5056 54.012C16.5056 54.724 16.6016 55.228 16.7936 55.524C16.9936 55.82 17.2976 55.968 17.7056 55.968C18.0816 55.968 18.4576 55.908 18.8336 55.788L19.0136 55.728V52.044C18.6296 52.012 18.3296 51.996 18.1136 51.996ZM25.5315 51H26.8275V57H25.5315V56.628C24.9475 56.964 24.4075 57.132 23.9115 57.132C23.0875 57.132 22.5355 56.912 22.2555 56.472C21.9755 56.024 21.8355 55.244 21.8355 54.132V51H23.1435V54.144C23.1435 54.864 23.2035 55.348 23.3235 55.596C23.4435 55.844 23.7235 55.968 24.1635 55.968C24.5955 55.968 24.9915 55.888 25.3515 55.728L25.5315 55.656V51ZM28.4111 57V51H29.7191V57H28.4111ZM28.4111 49.98V48.6H29.7191V49.98H28.4111ZM30.7417 51H32.1097L33.2617 55.884H33.6457L34.8457 51H36.1777L34.6177 57H32.2897L30.7417 51ZM37.4305 51.648C37.8465 51.128 38.5345 50.868 39.4945 50.868C40.4545 50.868 41.1385 51.128 41.5465 51.648C41.9625 52.168 42.1705 52.948 42.1705 53.988C42.1705 55.028 41.9705 55.812 41.5705 56.34C41.1705 56.868 40.4785 57.132 39.4945 57.132C38.5105 57.132 37.8185 56.868 37.4185 56.34C37.0185 55.812 36.8185 55.028 36.8185 53.988C36.8185 52.948 37.0225 52.168 37.4305 51.648ZM38.4145 55.548C38.5985 55.868 38.9585 56.028 39.4945 56.028C40.0305 56.028 40.3905 55.868 40.5745 55.548C40.7585 55.228 40.8505 54.704 40.8505 53.976C40.8505 53.248 40.7505 52.732 40.5505 52.428C40.3585 52.124 40.0065 51.972 39.4945 51.972C38.9825 51.972 38.6265 52.124 38.4265 52.428C38.2345 52.732 38.1385 53.248 38.1385 53.976C38.1385 54.704 38.2305 55.228 38.4145 55.548Z" fill="black"/>
<path d="M16.3667 11.3917V2H32.4667V11.3917" stroke="black" stroke-width="3" stroke-linecap="round" stroke-linejoin="round"/>
<path d="M16.3667 23.4667H13.6833C12.9717 23.4667 12.2892 23.184 11.7859 22.6807C11.2827 22.1775 11 21.495 11 20.7833V14.075C11 13.3633 11.2827 12.6808 11.7859 12.1776C12.2892 11.6744 12.9717 11.3917 13.6833 11.3917H35.15C35.8617 11.3917 36.5442 11.6744 37.0474 12.1776C37.5506 12.6808 37.8333 13.3633 37.8333 14.075V20.7833C37.8333 21.495 37.5506 22.1775 37.0474 22.6807C36.5442 23.184 35.8617 23.4667 35.15 23.4667H32.4667" stroke="black" stroke-width="3" stroke-linecap="round" stroke-linejoin="round"/>
<path d="M32.4667 18.1H16.3667V28.8333H32.4667V18.1Z" stroke="black" stroke-width="3" stroke-linecap="round" stroke-linejoin="round"/>
</svg>
